<svg xmlns="http://www.w3.org/2000/svg" viewBox="0 0 960 540" role="img" aria-labelledby="title desc">
  <title id="title">Portfolio project tracker visual</title>
  <desc id="desc">A stylized spreadsheet dashboard with project status rows and summary charts.</desc>
  <rect width="960" height="540" fill="#0c1420"/>
  <rect x="72" y="62" width="816" height="416" rx="18" fill="#f8fafc"/>
  <rect x="72" y="62" width="816" height="72" rx="18" fill="#111827"/>
  <text x="110" y="107" fill="#fed11f" font-family="Arial, sans-serif" font-size="28" font-weight="700">Portfolio Tracker</text>
  <rect x="112" y="170" width="500" height="44" rx="8" fill="#e5e7eb"/>
  <rect x="112" y="234" width="500" height="44" rx="8" fill="#dbeafe"/>
  <rect x="112" y="298" width="500" height="44" rx="8" fill="#dcfce7"/>
  <rect x="112" y="362" width="500" height="44" rx="8" fill="#fee2e2"/>
  <circle cx="148" cy="192" r="10" fill="#1f5f99"/>
  <circle cx="148" cy="256" r="10" fill="#2563eb"/>
  <circle cx="148" cy="320" r="10" fill="#16a34a"/>
  <circle cx="148" cy="384" r="10" fill="#dc2626"/>
  <rect x="180" y="184" width="260" height="12" rx="6" fill="#475569"/>
  <rect x="180" y="248" width="330" height="12" rx="6" fill="#475569"/>
  <rect x="180" y="312" width="230" height="12" rx="6" fill="#475569"/>
  <rect x="180" y="376" width="300" height="12" rx="6" fill="#475569"/>
  <rect x="652" y="168" width="178" height="238" rx="14" fill="#ffffff" stroke="#d1d5db"/>
  <rect x="690" y="270" width="28" height="88" rx="6" fill="#1f5f99"/>
  <rect x="732" y="224" width="28" height="134" rx="6" fill="#fed11f"/>
  <rect x="774" y="190" width="28" height="168" rx="6" fill="#16a34a"/>
</svg>
